<?xml version="1.0" standalone="no"?>
<!DOCTYPE svg PUBLIC "-//W3C//DTD SVG 20010904//EN"
 "http://www.w3.org/TR/2001/REC-SVG-20010904/DTD/svg10.dtd">
<svg version="1.0" xmlns="http://www.w3.org/2000/svg"
 width="260.000000pt" height="260.000000pt" viewBox="0 0 260.000000 260.000000"
 preserveAspectRatio="xMidYMid meet">
<metadata>
Created by potrace 1.11, written by Peter Selinger 2001-2013
</metadata>
<g transform="translate(0.000000,260.000000) scale(0.100000,-0.100000)"
fill="#000000" stroke="none">
<path d="M1140 2578 c-11 -12 -20 -31 -21 -42 -5 -96 -3 -397 3 -418 l7 -28
-108 0 c-94 0 -110 -2 -129 -20 -12 -12 -22 -33 -23 -48 -1 -15 -2 -43 -2 -62
l-2 -35 -108 -1 c-103 -1 -108 0 -138 27 -17 15 -52 34 -79 43 -53 17 -195 22
-205 7 -3 -6 -16 -6 -34 0 -15 5 -61 9 -102 7 l-74 -3 0 -65 c0 -61 1 -65 25
-70 95 -19 142 -111 98 -191 -20 -37 -71 -69 -109 -69 -18 0 -20 -6 -18 -60 1
-34 8 -65 15 -71 10 -8 151 -7 189 2 6 1 18 -1 27 -5 28 -13 168 0 213 19 35
15 95 68 112 99 9 17 23 20 89 21 44 1 84 0 90 -2 8 -3 11 -90 12 -299 0 -294
0 -295 23 -320 20 -21 31 -24 94 -24 l71 0 -3 -191 c-2 -173 -4 -193 -21 -205
-25 -17 -24 -128 1 -147 14 -10 17 -30 18 -111 0 -58 -4 -101 -10 -105 -5 -4
-41 -6 -78 -5 -101 3 -113 -8 -113 -101 l0 -74 -142 -3 c-101 -2 -143 -7 -145
-15 -4 -10 200 -13 956 -13 858 0 961 2 961 16 0 13 -17 15 -113 12 l-113 -3
0 195 c1 174 3 196 18 208 26 19 26 131 0 153 -16 13 -17 30 -15 150 2 74 4
158 4 187 l1 52 79 0 c71 0 83 3 104 25 l25 24 1 318 c4 711 4 696 -24 728
-22 26 -25 27 -140 26 -106 0 -135 7 -107 24 6 4 8 10 6 14 -3 4 -5 23 -6 42
0 19 -1 57 -1 84 0 28 -1 56 0 63 3 86 1 208 -4 232 -4 17 -15 35 -25 40 -12
6 -206 10 -514 10 l-495 0 -21 -22z"/>
</g>
</svg>
